<mxfile host="65bd71144e">
    <diagram id="6WV7AMNxfZ8NCuQBFB1w" name="第 1 页">
        <mxGraphModel dx="536" dy="376" grid="1" gridSize="10" guides="1" tooltips="1" connect="1" arrows="1" fold="1" page="1" pageScale="1" pageWidth="827" pageHeight="1169" math="0" shadow="0">
            <root>
                <mxCell id="0"/>
                <mxCell id="1" parent="0"/>
                <mxCell id="5" value="" style="edgeStyle=none;html=1;" edge="1" parent="1" source="2" target="4">
                    <mxGeometry relative="1" as="geometry"/>
                </mxCell>
                <mxCell id="2" value="archive.cpp" style="rounded=1;whiteSpace=wrap;html=1;" vertex="1" parent="1">
                    <mxGeometry x="180" y="60" width="120" height="60" as="geometry"/>
                </mxCell>
                <mxCell id="8" value="" style="edgeStyle=none;html=1;fontColor=#FF0000;" edge="1" parent="1" source="3" target="7">
                    <mxGeometry relative="1" as="geometry"/>
                </mxCell>
                <mxCell id="3" value="serialization.cpp" style="rounded=1;whiteSpace=wrap;html=1;" vertex="1" parent="1">
                    <mxGeometry x="500" y="60" width="120" height="60" as="geometry"/>
                </mxCell>
                <mxCell id="11" value="" style="edgeStyle=none;html=1;fontColor=#FFFFFF;exitX=0.5;exitY=1;exitDx=0;exitDy=0;" edge="1" parent="1" source="4" target="10">
                    <mxGeometry relative="1" as="geometry"/>
                </mxCell>
                <mxCell id="4" value="&lt;font color=&quot;#009900&quot;&gt;STATIC&lt;/font&gt;:archive" style="whiteSpace=wrap;html=1;rounded=1;" vertex="1" parent="1">
                    <mxGeometry x="180" y="200" width="120" height="60" as="geometry"/>
                </mxCell>
                <mxCell id="6" value="&lt;font color=&quot;#ff0000&quot;&gt;INTERFACE&lt;/font&gt;&lt;br&gt;USING_ARCHIVE_LIB" style="text;html=1;align=center;verticalAlign=middle;resizable=0;points=[];autosize=1;strokeColor=none;fillColor=none;" vertex="1" parent="1">
                    <mxGeometry x="240" y="145" width="140" height="30" as="geometry"/>
                </mxCell>
                <mxCell id="7" value="&lt;font color=&quot;#009900&quot;&gt;STATIC&lt;/font&gt;:serialization" style="whiteSpace=wrap;html=1;rounded=1;" vertex="1" parent="1">
                    <mxGeometry x="500" y="200" width="120" height="60" as="geometry"/>
                </mxCell>
                <mxCell id="9" value="INTERFACE&lt;br&gt;&lt;font color=&quot;#ffffff&quot;&gt;USING_SERIALIZATION_LIB&lt;/font&gt;" style="text;html=1;align=center;verticalAlign=middle;resizable=0;points=[];autosize=1;strokeColor=none;fillColor=none;fontColor=#FF0000;" vertex="1" parent="1">
                    <mxGeometry x="570" y="145" width="170" height="30" as="geometry"/>
                </mxCell>
                <mxCell id="16" value="" style="edgeStyle=none;html=1;fontColor=#FF0000;" edge="1" parent="1" source="10" target="15">
                    <mxGeometry relative="1" as="geometry"/>
                </mxCell>
                <mxCell id="10" value="&lt;font color=&quot;#009900&quot;&gt;STATIC&lt;/font&gt;:archiveExtras" style="whiteSpace=wrap;html=1;rounded=1;" vertex="1" parent="1">
                    <mxGeometry x="340" y="430" width="120" height="60" as="geometry"/>
                </mxCell>
                <mxCell id="12" value="" style="endArrow=classic;html=1;fontColor=#009900;exitX=0.5;exitY=1;exitDx=0;exitDy=0;entryX=0.75;entryY=0;entryDx=0;entryDy=0;" edge="1" parent="1" source="7" target="10">
                    <mxGeometry width="50" height="50" relative="1" as="geometry">
                        <mxPoint x="260" y="450" as="sourcePoint"/>
                        <mxPoint x="310" y="400" as="targetPoint"/>
                    </mxGeometry>
                </mxCell>
                <mxCell id="13" value="&lt;font color=&quot;#ff0000&quot;&gt;PUBLIC&lt;/font&gt;" style="text;html=1;align=center;verticalAlign=middle;resizable=0;points=[];autosize=1;strokeColor=none;fillColor=none;fontColor=#009900;" vertex="1" parent="1">
                    <mxGeometry x="300" y="310" width="60" height="20" as="geometry"/>
                </mxCell>
                <mxCell id="14" value="PRIVATE" style="text;html=1;align=center;verticalAlign=middle;resizable=0;points=[];autosize=1;strokeColor=none;fillColor=none;fontColor=#FF0000;" vertex="1" parent="1">
                    <mxGeometry x="525" y="310" width="70" height="20" as="geometry"/>
                </mxCell>
                <mxCell id="15" value="consumer" style="whiteSpace=wrap;html=1;rounded=1;" vertex="1" parent="1">
                    <mxGeometry x="340" y="570" width="120" height="60" as="geometry"/>
                </mxCell>
                <mxCell id="17" value="target_link_libraries()" style="text;html=1;align=center;verticalAlign=middle;resizable=0;points=[];autosize=1;strokeColor=none;fillColor=none;fontColor=#FF0000;" vertex="1" parent="1">
                    <mxGeometry x="410" y="520" width="130" height="20" as="geometry"/>
                </mxCell>
            </root>
        </mxGraphModel>
    </diagram>
</mxfile>